HIERARCHY
ROOT Hips
{
	OFFSET 0.000000 0.000000 0.000000
	CHANNELS 6 Xposition Yposition Zposition Zrotation Yrotation Xrotation 
	JOINT LHipJoint
	{
		OFFSET 0.000000 0.000000 0.000000
		CHANNELS 3 Zrotation Yrotation Xrotation
		JOINT LeftUpLeg
		{
			OFFSET 1.363060 -1.794630 0.839290
			CHANNELS 3 Zrotation Yrotation Xrotation
			JOINT LeftLeg
			{
				OFFSET 2.448110 -6.726130 0.000000
				CHANNELS 3 Zrotation Yrotation Xrotation
				JOINT LeftFoot
				{
					OFFSET 2.562200 -7.039590 0.000000
					CHANNELS 3 Zrotation Yrotation Xrotation
					JOINT LeftToeBase
					{
						OFFSET 0.157640 -0.433110 2.322550
						CHANNELS 3 Zrotation Yrotation Xrotation
						End Site
						{
							OFFSET 0.000000 0.000000 0.000000
						}
					}
				}
			}
		}
	}
	JOINT RHipJoint
	{
		OFFSET 0.000000 0.000000 0.000000
		CHANNELS 3 Zrotation Yrotation Xrotation
		JOINT RightUpLeg
		{
			OFFSET -1.305520 -1.794630 0.839290
			CHANNELS 3 Zrotation Yrotation Xrotation
			JOINT RightLeg
			{
				OFFSET -2.542530 -6.985550 0.000000
				CHANNELS 3 Zrotation Yrotation Xrotation
				JOINT RightFoot
				{
					OFFSET -2.568260 -7.056230 0.000000
					CHANNELS 3 Zrotation Yrotation Xrotation
					JOINT RightToeBase
					{
						OFFSET -0.164730 -0.452590 2.363150
						CHANNELS 3 Zrotation Yrotation Xrotation
						End Site
						{
							OFFSET 0.000000 0.000000 0.000000
						}
					}
				}
			}
		}
	}
	JOINT LowerBack
	{
		OFFSET 0.000000 0.000000 0.000000
		CHANNELS 3 Zrotation Yrotation Xrotation
		JOINT Spine
		{
			OFFSET 0.028270 2.035590 -0.193380
			CHANNELS 3 Zrotation Yrotation Xrotation
			JOINT Spine1
			{
				OFFSET 0.056720 2.048850 -0.042750
				CHANNELS 3 Zrotation Yrotation Xrotation
				JOINT Neck
				{
					OFFSET 0.000000 0.000000 0.000000
					CHANNELS 3 Zrotation Yrotation Xrotation
					JOINT Neck1
					{
						OFFSET -0.054170 1.746240 0.172020
						CHANNELS 3 Zrotation Yrotation Xrotation
						JOINT Head
						{
							OFFSET 0.104070 1.761360 -0.123970
							CHANNELS 3 Zrotation Yrotation Xrotation
							End Site
							{
								OFFSET 0.000000 0.000000 0.000000
							}
						}
					}
				}
				JOINT LeftShoulder
				{
					OFFSET 0.000000 0.000000 0.000000
					CHANNELS 3 Zrotation Yrotation Xrotation
					JOINT LeftArm
					{
						OFFSET 3.362410 1.200890 -0.311210
						CHANNELS 3 Zrotation Yrotation Xrotation
						JOINT LeftForeArm
						{
							OFFSET 4.983000 -0.000000 -0.000000
							CHANNELS 3 Zrotation Yrotation Xrotation
							JOINT LeftHand
							{
								OFFSET 3.483560 -0.000000 -0.000000
								CHANNELS 3 Zrotation Yrotation Xrotation
								JOINT LeftFingerBase
								{
									OFFSET 0.000000 0.000000 0.000000
									CHANNELS 3 Zrotation Yrotation Xrotation
									JOINT LeftHandIndex1
									{
										OFFSET 0.715260 -0.000000 -0.000000
										CHANNELS 3 Zrotation Yrotation Xrotation
										End Site
										{
											OFFSET 0.000000 0.000000 0.000000
										}
									}
								}
								JOINT LThumb
								{
									OFFSET 0.000000 0.000000 0.000000
									CHANNELS 3 Zrotation Yrotation Xrotation
									End Site
									{
										OFFSET 0.000000 0.000000 0.000000
									}
								}
							}
						}
					}
				}
				JOINT RightShoulder
				{
					OFFSET 0.000000 0.000000 0.000000
					CHANNELS 3 Zrotation Yrotation Xrotation
					JOINT RightArm
					{
						OFFSET -3.136600 1.374050 -0.404650
						CHANNELS 3 Zrotation Yrotation Xrotation
						JOINT RightForeArm
						{
							OFFSET -5.241900 -0.000000 -0.000000
							CHANNELS 3 Zrotation Yrotation Xrotation
							JOINT RightHand
							{
								OFFSET -3.444170 -0.000000 -0.000000
								CHANNELS 3 Zrotation Yrotation Xrotation
								JOINT RightFingerBase
								{
									OFFSET 0.000000 0.000000 0.000000
									CHANNELS 3 Zrotation Yrotation Xrotation
									JOINT RightHandIndex1
									{
										OFFSET -0.622530 -0.000000 -0.000000
										CHANNELS 3 Zrotation Yrotation Xrotation
										End Site
										{
											OFFSET 0.000000 0.000000 0.000000
										}
									}
								}
								JOINT RThumb
								{
									OFFSET 0.000000 0.000000 0.000000
									CHANNELS 3 Zrotation Yrotation Xrotation
									End Site
									{
										OFFSET 0.000000 0.000000 0.000000
									}
								}
							}
						}
					}
				}
			}
		}
	}
}
MOTION
Frames: 9
Frame Time: 0.008333
7.361665 20.119779 2.144443 33.232204 -86.709202 -11.347681 -11.728569 5.081985 3.402050 -2.041205 4.097891 -6.353665 0.172858 0.481432 11.348766 2.284814 8.868820 42.261574 5.742100 -0.000001 -61.012500 11.408952 -4.523428 0.456307 0.989007 -14.081600 -2.342491 0.865056 -0.825986 7.096520 -0.856294 10.112747 46.305781 8.281900 0.000000 -76.898500 -1.139376 -0.927770 -4.815434 -0.185651 -0.839150 -3.968261 -2.153645 -0.876271 -1.374942 -1.684655 -6.523061 1.841406 -0.482224 -0.196154 2.614948 0.000000 0.000000 0.000000 16.686627 1.561954 -3.257447 -49.386357 -43.726643 2.959701 179.547846 -88.839265 179.830873 13.212473 -7.108027 -0.925245 -0.101201 0.805713 -0.000000 0.000000 0.000000 0.000000 0.000000 0.000000 0.000000 -11.794087 -3.478085 -2.629283 47.455522 46.588957 0.950976 -0.418796 74.691954 -0.125643 -11.822173 10.383572 -1.152715 0.044016 -0.667349 -0.000000 0.000000 0.000000 0.000000 0.000000 0.000000 0.000000 
7.123641 20.295624 2.129516 33.246840 -86.824633 -11.623017 -11.747901 5.026080 3.249431 -2.118241 4.770873 -6.733472 0.134328 0.501201 11.919492 2.248316 8.901963 41.372919 5.683800 -0.000000 -61.522799 11.409559 -4.481988 0.327744 1.010012 -14.654676 -2.691206 0.916600 -0.850045 7.459538 -0.811661 10.129234 45.554975 8.207700 -0.000000 -77.468300 -1.147193 -0.886750 -4.552870 -0.199469 -0.797155 -3.902214 -2.159501 -0.828463 -1.350166 -1.650775 -6.574217 2.012438 -0.535209 -0.201817 2.657116 0.000000 0.000000 0.000000 16.858300 2.043004 -3.407489 -47.690608 -43.726038 0.672480 179.390965 -86.544677 179.825235 13.228912 -7.149735 -0.933283 -0.094466 0.825114 -0.000000 0.000000 0.000000 0.000000 0.000000 0.000000 0.000000 -11.640422 -3.670064 -2.739745 44.932965 46.724862 -1.078748 -0.352255 76.516814 -0.125617 -11.552453 9.984926 -1.085277 0.036088 -0.672578 -0.000000 0.000000 0.000000 0.000000 0.000000 0.000000 0.000000 
6.887830 20.462535 2.115181 32.907600 -86.907891 -11.425944 -11.780475 4.954105 3.102968 -2.206311 5.464424 -7.322659 0.082174 0.516152 12.407237 2.202847 8.589799 40.763661 5.399900 0.000000 -62.290200 11.409966 -4.434826 0.203109 1.103165 -15.270249 -3.168759 0.994648 -0.858234 7.565652 -0.761292 10.176219 44.907698 8.162199 0.000000 -78.278500 -1.130283 -0.851555 -4.297604 -0.207923 -0.762976 -3.837977 -2.165077 -0.788886 -1.323621 -1.642771 -6.601506 2.217324 -0.600203 -0.208561 2.707052 0.000000 0.000000 0.000000 17.031603 2.494558 -3.562470 -46.056836 -43.604128 -1.774953 179.213426 -84.207647 179.818245 13.337757 -7.325114 -0.964213 -0.090396 0.847327 -0.000000 0.000000 0.000000 0.000000 0.000000 0.000000 0.000000 -11.476518 -3.876245 -2.870058 42.394905 46.753294 -3.239417 -0.272776 78.381099 -0.129050 -11.658502 9.769387 -1.073740 0.034347 -0.680576 -0.000000 0.000000 0.000000 0.000000 0.000000 0.000000 0.000000 
6.653871 20.621656 2.101205 32.490353 -86.957064 -11.074432 -11.813492 4.870065 2.966650 -2.330579 6.056487 -7.960626 0.022776 0.526843 12.663733 2.155576 8.083806 40.478651 5.011700 0.000000 -62.845600 11.412662 -4.376198 0.065824 1.227875 -15.913401 -3.672030 1.096755 -0.850920 7.359394 -0.705638 10.250692 44.357243 8.143000 0.000001 -78.794900 -1.104214 -0.823169 -4.025936 -0.213299 -0.736008 -3.771917 -2.165771 -0.757070 -1.301702 -1.670975 -6.597128 2.459610 -0.672560 -0.216146 2.765438 0.000000 0.000000 0.000000 17.207696 2.888911 -3.718707 -44.509166 -43.319998 -4.362824 179.018751 -81.831235 179.810124 13.537984 -7.573608 -1.011634 -0.089602 0.870809 -0.000000 0.000000 0.000000 0.000000 0.000000 0.000000 0.000000 -11.336009 -4.081562 -3.020438 39.932376 46.646991 -5.483815 -0.179771 80.263430 -0.135929 -12.116304 9.737042 -1.114206 0.038714 -0.691341 -0.000000 0.000000 0.000000 0.000000 0.000000 0.000000 0.000000 
6.421187 20.773213 2.087296 32.115746 -86.966221 -10.698372 -11.841739 4.776741 2.846234 -2.501417 6.517130 -8.625585 -0.042196 0.532442 12.676783 2.108426 7.455334 40.480276 4.565699 0.000000 -63.157200 11.419557 -4.304155 -0.083696 1.372368 -16.580183 -4.199358 1.220077 -0.828556 6.876722 -0.644480 10.310116 43.845692 8.111500 -0.000000 -78.868200 -1.081897 -0.803398 -3.744845 -0.217415 -0.717027 -3.706117 -2.158110 -0.734130 -1.286851 -1.736571 -6.560491 2.734817 -0.748551 -0.224278 2.831230 0.000000 0.000000 0.000000 17.403798 3.208224 -3.873291 -43.086542 -42.849702 -7.056510 178.811066 -79.430270 179.801024 13.832876 -7.854678 -1.071548 -0.092661 0.894411 -0.000000 0.000000 0.000000 0.000000 0.000000 0.000000 0.000000 -11.236591 -4.278729 -3.187508 37.605709 46.392017 -7.759982 -0.072802 82.149579 -0.146114 -12.903948 9.865957 -1.204373 0.049206 -0.704433 -0.000000 0.000000 0.000000 0.000000 0.000000 0.000000 0.000000 
6.189599 20.917487 2.073885 31.423354 -86.939253 -9.913147 -11.870036 4.666663 2.743760 -2.697789 6.846399 -9.375784 -0.109599 0.531575 12.501928 2.063071 6.759032 40.689057 4.089400 -0.000000 -63.471700 11.418230 -4.223870 -0.219496 1.597418 -17.145192 -4.756347 1.355810 -0.786569 6.083977 -0.588234 10.135267 43.425706 7.910500 0.000000 -79.266000 -1.044925 -0.790599 -3.483062 -0.216116 -0.706106 -3.644303 -2.142539 -0.720287 -1.270588 -1.837271 -6.518509 3.021975 -0.826937 -0.232547 2.899094 0.000000 0.000000 0.000000 17.613197 3.482746 -4.021219 -41.807079 -42.241879 -9.814225 178.595544 -77.043582 179.790737 14.244482 -8.159431 -1.145845 -0.100406 0.917859 -0.000000 0.000000 0.000000 0.000000 0.000000 0.000000 0.000000 -11.177825 -4.491888 -3.368350 35.430091 46.021086 -10.025250 0.047159 84.021543 -0.159335 -13.999118 10.118276 -1.342038 0.065756 -0.719061 -0.000000 0.000000 0.000000 0.000000 0.000000 0.000000 0.000000 
5.958552 21.053707 2.060632 30.702865 -86.875956 -9.035122 -11.889875 4.545634 2.661889 -2.934822 7.013684 -10.152435 -0.178043 0.524731 12.124222 2.020118 6.105197 41.017015 3.653401 0.000000 -63.557100 11.413090 -4.132278 -0.347284 1.866904 -17.625753 -5.334098 1.501154 -0.728126 5.070261 -0.532152 9.749130 42.975854 7.546200 -0.000000 -79.354899 -1.010843 -0.784714 -3.238053 -0.212004 -0.701661 -3.587961 -2.114405 -0.714197 -1.260312 -1.973649 -6.459680 3.317109 -0.901173 -0.240547 2.968319 0.000000 0.000000 0.000000 17.849786 3.680654 -4.157647 -40.690000 -41.467041 -12.613407 178.377187 -74.691263 179.779689 14.761916 -8.440415 -1.228629 -0.112935 0.939621 -0.000000 0.000000 0.000000 0.000000 0.000000 0.000000 0.000000 -11.188722 -4.695861 -3.555419 33.468516 45.511384 -12.242051 0.179069 85.869369 -0.174827 -15.324984 10.466772 -1.521902 0.087142 -0.734701 -0.000000 0.000000 0.000000 0.000000 0.000000 0.000000 0.000000 
5.728183 21.181399 2.047358 30.079748 -86.776783 -8.197608 -11.897565 4.414989 2.599296 -3.216901 7.023503 -10.958168 -0.247390 0.512629 11.589100 1.978170 5.570193 41.355708 3.305100 -0.000000 -63.351300 11.404895 -4.026988 -0.464938 2.169107 -18.015311 -5.952757 1.651476 -0.655232 3.925702 -0.475344 9.137076 42.414993 7.002499 0.000000 -79.029000 -0.989004 -0.785122 -3.012081 -0.206688 -0.702348 -3.537579 -2.072500 -0.714594 -1.255717 -2.138294 -6.393179 3.605584 -0.967194 -0.247860 3.035343 0.000000 0.000000 0.000000 18.118953 3.808949 -4.278855 -39.739513 -40.552689 -15.429749 178.160373 -72.410016 179.767868 15.394344 -8.690435 -1.319998 -0.130496 0.959223 -0.000000 0.000000 0.000000 0.000000 0.000000 0.000000 0.000000 -11.274561 -4.890648 -3.741446 31.733797 44.874177 -14.390600 0.321115 87.684021 -0.191831 -16.816074 10.871406 -1.736961 0.112312 -0.750643 -0.000000 0.000000 0.000000 0.000000 0.000000 0.000000 0.000000 
5.498660 21.299771 2.034228 29.482983 -86.649173 -7.333256 -11.894139 4.273018 2.551147 -3.532586 6.896925 -11.804098 -0.316533 0.495799 10.945947 1.936807 5.215603 41.619709 3.085500 -0.000000 -62.966700 11.388828 -3.909360 -0.562559 2.513071 -18.264096 -6.612664 1.799841 -0.567548 2.690930 -0.422266 8.249680 41.738252 6.248600 0.000000 -78.505700 -0.974605 -0.789162 -2.810425 -0.198908 -0.705895 -3.493800 -2.016622 -0.719152 -1.254536 -2.324564 -6.330811 3.872509 -1.021273 -0.254093 3.096556 0.000000 0.000000 0.000000 18.415765 3.885144 -4.381665 -38.950483 -39.539485 -18.242051 177.949035 -70.241144 179.755259 16.148751 -8.907747 -1.420855 -0.153108 0.976347 -0.000000 0.000000 0.000000 0.000000 0.000000 0.000000 0.000000 -11.439987 -5.079838 -3.920542 30.226073 44.128848 -16.461291 0.470673 89.454640 -0.209494 -18.397591 11.296121 -1.977418 0.139978 -0.766264 -0.000000 0.000000 0.000000 0.000000 0.000000 0.000000 0.000000 
